<svg xmlns="http://www.w3.org/2000/svg" width="122.713" height="30.237" viewBox="0 0 122.713 30.237"><path d="M-8760.853-1655.9a13.334,13.334,0,0,1-2.445-.724,13.034,13.034,0,0,1-2.3-1.208,13.242,13.242,0,0,1-2.069-1.691,13.275,13.275,0,0,1-1.7-2.076,12.846,12.846,0,0,1-1.206-2.292,13.239,13.239,0,0,1-.725-2.446,12.943,12.943,0,0,1-.242-2.521,13.275,13.275,0,0,1,.242-2.523,13.189,13.189,0,0,1,.725-2.446,12.965,12.965,0,0,1,1.208-2.3,13.23,13.23,0,0,1,1.693-2.072,13.2,13.2,0,0,1,2.5-1.966,13.281,13.281,0,0,1,2.807-1.275,13.224,13.224,0,0,1,2.982-.583,13.377,13.377,0,0,1,3.025.11,8.372,8.372,0,0,0,1.677,9.387,8.373,8.373,0,0,0,9.385,1.675,13.34,13.34,0,0,1,.112,3.025,13.291,13.291,0,0,1-.586,2.981,13.157,13.157,0,0,1-1.274,2.809,13.371,13.371,0,0,1-1.966,2.505,13.234,13.234,0,0,1-2.071,1.691,13.121,13.121,0,0,1-2.3,1.211,13.1,13.1,0,0,1-2.446.722,13.1,13.1,0,0,1-2.521.244A13.269,13.269,0,0,1-8760.853-1655.9Zm12.042-.02a5.874,5.874,0,0,1-2.448-.528h4.9l0,0a5.9,5.9,0,0,1-2.433.526Zm-1.887-1.2c.348-.231.7-.48,1.021-.742h5.259c-.062.068-.13.139-.2.207a6.375,6.375,0,0,1-.614.535Zm2.208-1.8c.118-.119.233-.24.348-.361l4.683,0a5.812,5.812,0,0,1-.426.742l-5,0C-8748.754-1658.664-8748.619-1658.79-8748.489-1658.92Zm.939-1.037c.2-.242.386-.489.566-.744h4a5.323,5.323,0,0,1-.2.744Zm1.02-1.42c.151-.242.295-.491.434-.74l3.216,0c0,.086.007.174.007.264,0,.159-.007.319-.02.478Zm86.069-7.132a5.632,5.632,0,0,1,5.82-5.926,5.623,5.623,0,0,1,5.822,5.926,5.712,5.712,0,0,1-5.906,5.97A5.59,5.59,0,0,1-8660.461-1668.509Zm1.952,0c0,2.921,1.787,4.288,3.784,4.288s3.949-1.367,3.949-4.288c0-2.9-1.911-4.266-3.888-4.266C-8656.68-1672.775-8658.509-1671.408-8658.509-1668.509Zm-14.71,0c0-3.615,2.334-5.926,5.611-5.926,2.857,0,4.729,1.473,5.316,3.888h-2.061a3.135,3.135,0,0,0-3.256-2.27c-2.1,0-3.658,1.493-3.658,4.308,0,2.859,1.557,4.352,3.658,4.352a3.088,3.088,0,0,0,3.256-2.27h2.061a5.124,5.124,0,0,1-5.318,3.888C-8670.885-1662.539-8673.219-1664.85-8673.219-1668.509Zm-40.265,0a5.632,5.632,0,0,1,5.82-5.926,5.621,5.621,0,0,1,5.82,5.926,5.71,5.71,0,0,1-5.9,5.97A5.59,5.59,0,0,1-8713.483-1668.509Zm1.952,0c0,2.921,1.788,4.288,3.784,4.288s3.949-1.367,3.949-4.288c0-2.9-1.91-4.266-3.888-4.266C-8709.7-1672.775-8711.531-1671.408-8711.531-1668.509Zm33.857,5.781v-11.518h1.913v11.518Zm-5.023,0,0-6.516c0-2.353-1.262-3.551-3.152-3.551-1.935,0-3.258,1.239-3.258,3.72v6.347H-8691v-6.516c0-2.353-1.262-3.551-3.152-3.551-1.936,0-3.261,1.239-3.261,3.72v6.347h-1.911v-11.518h1.911v1.66a4.169,4.169,0,0,1,3.637-1.869,4.336,4.336,0,0,1,4.225,2.565,4.26,4.26,0,0,1,4.077-2.565c2.628,0,4.664,1.638,4.664,4.938v6.789Zm-34.108,0c-2.038,0-3.194-.841-3.194-3.152v-6.789h-1.492v-1.576H-8720v-2.9h1.913v2.9h3v1.576h-3v6.789c0,1.134.421,1.534,1.6,1.534h1.406v1.618Zm-7.944,0-1.176-3.258h-6.391l-1.175,3.258h-2.017l5.294-14.564h2.208l5.274,14.564Zm-7.018-4.812h5.294l-2.646-7.4Zm-13.983,4.746c.112-.242.223-.491.326-.742h2.311a5.949,5.949,0,0,1,.168.742Zm.576-1.418c.084-.244.163-.493.236-.742h1.192a5.788,5.788,0,0,1,.386.742Zm.41-1.42c.035-.156.068-.315.1-.476a6.357,6.357,0,0,1,.437.476Zm-4.416-5.4,7.777-7.78a7.346,7.346,0,0,1-.06,1.374l-6.347,6.344a7.6,7.6,0,0,1-1.023.07C-8748.949-1671.028-8749.064-1671.031-8749.181-1671.036Zm-2.1-.409,9.475-9.475a7.283,7.283,0,0,1,.279,1.032l-8.722,8.722A7.382,7.382,0,0,1-8751.285-1671.446Zm9.417-4.392a7.41,7.41,0,0,1-1.69,2.622s-.009.007-.011.011a7.432,7.432,0,0,1-2.633,1.7Zm-11.09,3.555,10.311-10.313a7.673,7.673,0,0,1,.482.834l-9.964,9.963A7.211,7.211,0,0,1-8752.958-1672.282Zm-1.123-.922c-.077-.077-.156-.156-.227-.235l10.5-10.5c.079.073.159.15.238.227.141.143.277.288.407.44l-10.479,10.479C-8753.793-1672.927-8753.937-1673.061-8754.081-1673.2Zm-1.274-1.7,10.082-10.082a7.018,7.018,0,0,1,.806.506l-10.379,10.379A7.342,7.342,0,0,1-8755.355-1674.906Zm-.7-1.814,8.967-8.968a7.528,7.528,0,0,1,1,.317l-9.646,9.649A7.268,7.268,0,0,1-8756.054-1676.72Zm78.441.229a1.279,1.279,0,0,1-.376-.927,1.28,1.28,0,0,1,.376-.929,1.277,1.277,0,0,1,.927-.374,1.265,1.265,0,0,1,.9.387,1.265,1.265,0,0,1,.358.916,1.263,1.263,0,0,1-.358.914,1.277,1.277,0,0,1-.9.39h-.017A1.288,1.288,0,0,1-8677.612-1676.491Zm-78.622-2.56,6.818-6.818a7.324,7.324,0,0,1,1.3.011l-8.11,8.11A7.744,7.744,0,0,1-8756.234-1679.051Zm2.153-4.665a7.42,7.42,0,0,1,3.2-1.889l-5.09,5.09A7.4,7.4,0,0,1-8754.081-1683.716Z" transform="translate(8771.531 1685.893)" fill="white"/></svg>
